<?xml version="1.0" standalone="no"?>
<svg xmlns:xlink="http://www.w3.org/1999/xlink" id="wave" style="transform:rotate(0deg); transition: 0.3s" viewBox="0 0 1440 490" version="1.1" xmlns="http://www.w3.org/2000/svg"><defs><linearGradient id="sw-gradient-0" x1="0" x2="0" y1="1" y2="0"><stop stop-color="rgba(0, 0, 0, 1)" offset="0%"/><stop stop-color="rgba(175.241, 11.649, 154.486, 1)" offset="100%"/></linearGradient></defs><path style="transform:translate(0, 0px); opacity:1" fill="url(#sw-gradient-0)" d="M0,49L80,98C160,147,320,245,480,245C640,245,800,147,960,98C1120,49,1280,49,1440,40.8C1600,33,1760,16,1920,57.2C2080,98,2240,196,2400,212.3C2560,229,2720,163,2880,122.5C3040,82,3200,65,3360,114.3C3520,163,3680,278,3840,285.8C4000,294,4160,196,4320,187.8C4480,180,4640,261,4800,261.3C4960,261,5120,180,5280,122.5C5440,65,5600,33,5760,40.8C5920,49,6080,98,6240,98C6400,98,6560,49,6720,81.7C6880,114,7040,229,7200,269.5C7360,310,7520,278,7680,269.5C7840,261,8000,278,8160,310.3C8320,343,8480,392,8640,416.5C8800,441,8960,441,9120,441C9280,441,9440,441,9600,383.8C9760,327,9920,212,10080,212.3C10240,212,10400,327,10560,318.5C10720,310,10880,180,11040,130.7C11200,82,11360,114,11440,130.7L11520,147L11520,490L11440,490C11360,490,11200,490,11040,490C10880,490,10720,490,10560,490C10400,490,10240,490,10080,490C9920,490,9760,490,9600,490C9440,490,9280,490,9120,490C8960,490,8800,490,8640,490C8480,490,8320,490,8160,490C8000,490,7840,490,7680,490C7520,490,7360,490,7200,490C7040,490,6880,490,6720,490C6560,490,6400,490,6240,490C6080,490,5920,490,5760,490C5600,490,5440,490,5280,490C5120,490,4960,490,4800,490C4640,490,4480,490,4320,490C4160,490,4000,490,3840,490C3680,490,3520,490,3360,490C3200,490,3040,490,2880,490C2720,490,2560,490,2400,490C2240,490,2080,490,1920,490C1760,490,1600,490,1440,490C1280,490,1120,490,960,490C800,490,640,490,480,490C320,490,160,490,80,490L0,490Z"/><defs><linearGradient id="sw-gradient-1" x1="0" x2="0" y1="1" y2="0"><stop stop-color="rgba(113.764, 1.757, 91.818, 1)" offset="0%"/><stop stop-color="rgba(42.557, 0, 47.734, 1)" offset="100%"/></linearGradient></defs><path style="transform:translate(0, 50px); opacity:0.9" fill="url(#sw-gradient-1)" d="M0,392L80,334.8C160,278,320,163,480,130.7C640,98,800,147,960,204.2C1120,261,1280,327,1440,351.2C1600,376,1760,359,1920,343C2080,327,2240,310,2400,285.8C2560,261,2720,229,2880,220.5C3040,212,3200,229,3360,212.3C3520,196,3680,147,3840,155.2C4000,163,4160,229,4320,277.7C4480,327,4640,359,4800,310.3C4960,261,5120,131,5280,122.5C5440,114,5600,229,5760,294C5920,359,6080,376,6240,359.3C6400,343,6560,294,6720,253.2C6880,212,7040,180,7200,163.3C7360,147,7520,147,7680,187.8C7840,229,8000,310,8160,334.8C8320,359,8480,327,8640,269.5C8800,212,8960,131,9120,81.7C9280,33,9440,16,9600,32.7C9760,49,9920,98,10080,171.5C10240,245,10400,343,10560,359.3C10720,376,10880,310,11040,277.7C11200,245,11360,245,11440,245L11520,245L11520,490L11440,490C11360,490,11200,490,11040,490C10880,490,10720,490,10560,490C10400,490,10240,490,10080,490C9920,490,9760,490,9600,490C9440,490,9280,490,9120,490C8960,490,8800,490,8640,490C8480,490,8320,490,8160,490C8000,490,7840,490,7680,490C7520,490,7360,490,7200,490C7040,490,6880,490,6720,490C6560,490,6400,490,6240,490C6080,490,5920,490,5760,490C5600,490,5440,490,5280,490C5120,490,4960,490,4800,490C4640,490,4480,490,4320,490C4160,490,4000,490,3840,490C3680,490,3520,490,3360,490C3200,490,3040,490,2880,490C2720,490,2560,490,2400,490C2240,490,2080,490,1920,490C1760,490,1600,490,1440,490C1280,490,1120,490,960,490C800,490,640,490,480,490C320,490,160,490,80,490L0,490Z"/><defs><linearGradient id="sw-gradient-2" x1="0" x2="0" y1="1" y2="0"><stop stop-color="rgba(34.072, 0, 29.643, 1)" offset="0%"/><stop stop-color="rgba(223.056, 0, 178.835, 1)" offset="100%"/></linearGradient></defs><path style="transform:translate(0, 100px); opacity:0.8" fill="url(#sw-gradient-2)" d="M0,98L80,122.5C160,147,320,196,480,245C640,294,800,343,960,359.3C1120,376,1280,359,1440,318.5C1600,278,1760,212,1920,155.2C2080,98,2240,49,2400,73.5C2560,98,2720,196,2880,261.3C3040,327,3200,359,3360,359.3C3520,359,3680,327,3840,334.8C4000,343,4160,392,4320,416.5C4480,441,4640,441,4800,375.7C4960,310,5120,180,5280,114.3C5440,49,5600,49,5760,40.8C5920,33,6080,16,6240,32.7C6400,49,6560,98,6720,98C6880,98,7040,49,7200,49C7360,49,7520,98,7680,163.3C7840,229,8000,310,8160,285.8C8320,261,8480,131,8640,114.3C8800,98,8960,196,9120,220.5C9280,245,9440,196,9600,187.8C9760,180,9920,212,10080,236.8C10240,261,10400,278,10560,310.3C10720,343,10880,392,11040,383.8C11200,376,11360,310,11440,277.7L11520,245L11520,490L11440,490C11360,490,11200,490,11040,490C10880,490,10720,490,10560,490C10400,490,10240,490,10080,490C9920,490,9760,490,9600,490C9440,490,9280,490,9120,490C8960,490,8800,490,8640,490C8480,490,8320,490,8160,490C8000,490,7840,490,7680,490C7520,490,7360,490,7200,490C7040,490,6880,490,6720,490C6560,490,6400,490,6240,490C6080,490,5920,490,5760,490C5600,490,5440,490,5280,490C5120,490,4960,490,4800,490C4640,490,4480,490,4320,490C4160,490,4000,490,3840,490C3680,490,3520,490,3360,490C3200,490,3040,490,2880,490C2720,490,2560,490,2400,490C2240,490,2080,490,1920,490C1760,490,1600,490,1440,490C1280,490,1120,490,960,490C800,490,640,490,480,490C320,490,160,490,80,490L0,490Z"/><defs><linearGradient id="sw-gradient-3" x1="0" x2="0" y1="1" y2="0"><stop stop-color="rgba(177.517, 0, 81.955, 1)" offset="0%"/><stop stop-color="rgba(161.579, 9.682, 100.316, 1)" offset="100%"/></linearGradient></defs><path style="transform:translate(0, 150px); opacity:0.7" fill="url(#sw-gradient-3)" d="M0,49L80,49C160,49,320,49,480,98C640,147,800,245,960,236.8C1120,229,1280,114,1440,130.7C1600,147,1760,294,1920,326.7C2080,359,2240,278,2400,269.5C2560,261,2720,327,2880,294C3040,261,3200,131,3360,138.8C3520,147,3680,294,3840,351.2C4000,408,4160,376,4320,375.7C4480,376,4640,408,4800,424.7C4960,441,5120,441,5280,432.8C5440,425,5600,408,5760,351.2C5920,294,6080,196,6240,147C6400,98,6560,98,6720,114.3C6880,131,7040,163,7200,163.3C7360,163,7520,131,7680,163.3C7840,196,8000,294,8160,318.5C8320,343,8480,294,8640,277.7C8800,261,8960,278,9120,277.7C9280,278,9440,261,9600,228.7C9760,196,9920,147,10080,171.5C10240,196,10400,294,10560,302.2C10720,310,10880,229,11040,228.7C11200,229,11360,310,11440,351.2L11520,392L11520,490L11440,490C11360,490,11200,490,11040,490C10880,490,10720,490,10560,490C10400,490,10240,490,10080,490C9920,490,9760,490,9600,490C9440,490,9280,490,9120,490C8960,490,8800,490,8640,490C8480,490,8320,490,8160,490C8000,490,7840,490,7680,490C7520,490,7360,490,7200,490C7040,490,6880,490,6720,490C6560,490,6400,490,6240,490C6080,490,5920,490,5760,490C5600,490,5440,490,5280,490C5120,490,4960,490,4800,490C4640,490,4480,490,4320,490C4160,490,4000,490,3840,490C3680,490,3520,490,3360,490C3200,490,3040,490,2880,490C2720,490,2560,490,2400,490C2240,490,2080,490,1920,490C1760,490,1600,490,1440,490C1280,490,1120,490,960,490C800,490,640,490,480,490C320,490,160,490,80,490L0,490Z"/></svg>